<?xml version="1.0" encoding="utf-8"?>
<!-- Generator: Adobe Illustrator 25.0.0, SVG Export Plug-In . SVG Version: 6.00 Build 0)  -->
<svg version="1.1" id="Layer_1" xmlns="http://www.w3.org/2000/svg" xmlns:xlink="http://www.w3.org/1999/xlink" x="0px" y="0px"
	 viewBox="0 0 29 28" style="enable-background:new 0 0 29 28;" xml:space="preserve">
<style type="text/css">
	.st0{fill:url(#SVGID_1_);}
	.st1{fill:url(#SVGID_2_);}
	.st2{fill:url(#SVGID_3_);}
	.st3{fill:url(#SVGID_4_);}
	.st4{fill:url(#SVGID_5_);}
</style>
<g>
	<linearGradient id="SVGID_1_" gradientUnits="userSpaceOnUse" x1="15" y1="0.5" x2="15" y2="27.5">
		<stop  offset="0" style="stop-color:#41BCA6"/>
		<stop  offset="1" style="stop-color:#14BDD1"/>
	</linearGradient>
	<path class="st0" d="M2.6,0.5c4.4,0,8.9,0,13.3,0c5.3,0.1,9.5,4.9,9.2,10.3c-0.2,2.6-1.2,4.8-3.2,6.6c-0.4,0.4-0.5,0.6-0.2,1.1
		c1.8,2.8,3.5,5.6,5.3,8.3c0.1,0.2,0.2,0.3,0.4,0.6c-0.5,0-1,0-1.3,0c-0.9,0-1.8,0.1-2.7,0c-1.2,0.2-1.9-0.3-2.5-1.4
		c-1.9-3.2-4-6.4-6-9.6c-0.2-0.3-0.4-0.6-0.6-1c1.3,0,2.3,0,3.4-0.5c2.1-1.1,3.3-3.4,2.9-5.6C20,6.9,18,5.1,15.6,5
		c-1.8-0.1-3.7,0-5.5,0c-2.5,0-5,0-7.5,0"/>
	<linearGradient id="SVGID_2_" gradientUnits="userSpaceOnUse" x1="10.1482" y1="7.9742" x2="10.1482" y2="27.4532">
		<stop  offset="0" style="stop-color:#41BCA6"/>
		<stop  offset="1" style="stop-color:#14BDD1"/>
	</linearGradient>
	<path class="st1" d="M2.6,8C6.8,8,11,8,15.2,8c1.5,0,2.5,1,2.5,2.3c0,1.3-1.2,2.3-2.6,2.2c-0.1-0.3-0.3-0.2-0.5-0.2
		c-2.1,0-4.1,0-6.2,0c-0.2,0-0.4-0.1-0.5,0.2c-0.5,0.1-0.6,0.2-0.6,0.7c0,4.5,0,9,0,13.5c0,0.2,0,0.5,0,0.7c-0.1,0-0.2,0-0.3,0.1
		c-1.3,0-2.5,0-3.8,0c-0.4-0.1-0.4-0.3-0.4-0.6c0-3.5,0-7.1,0-10.6c0-1.1,0-2.2,0-3.2c0-0.1,0,13.9,0,13.9"/>
	<linearGradient id="SVGID_3_" gradientUnits="userSpaceOnUse" x1="14.198" y1="15.39" x2="14.198" y2="27.4483">
		<stop  offset="0" style="stop-color:#41BCA6"/>
		<stop  offset="1" style="stop-color:#14BDD1"/>
	</linearGradient>
	<path class="st2" d="M18.2,27.4c-1.8,0-3.5,0-5.2,0c-0.3,0-0.4-0.1-0.6-0.3c-0.7-1.1-1.4-2.3-2.1-3.4c-0.2-0.3-0.2-0.5-0.2-0.8
		c0-2.3,0-4.5,0-6.8c0-0.2,0-0.5,0.2-0.7c0.3-0.3,0.5,0.2,0.7,0.4c1.9,3,3.8,6,5.7,9.1C17.2,25.7,17.7,26.6,18.2,27.4z"/>
	<linearGradient id="SVGID_4_" gradientUnits="userSpaceOnUse" x1="11.3788" y1="12.2517" x2="11.3788" y2="12.4749">
		<stop  offset="0" style="stop-color:#41BCA6"/>
		<stop  offset="1" style="stop-color:#14BDD1"/>
	</linearGradient>
	<path class="st3" d="M7.7,12.5c0.1-0.3,0.3-0.2,0.5-0.2c2.1,0,4.1,0,6.2,0c0.2,0,0.4-0.1,0.5,0.2C12.6,12.5,10.2,12.5,7.7,12.5z"/>
	<linearGradient id="SVGID_5_" gradientUnits="userSpaceOnUse" x1="6.9961" y1="27.2977" x2="6.9961" y2="27.4224">
		<stop  offset="0" style="stop-color:#41BCA6"/>
		<stop  offset="1" style="stop-color:#14BDD1"/>
	</linearGradient>
	<path class="st4" d="M6.9,27.4c0.1-0.1,0.2-0.1,0.3-0.1C7.1,27.4,7,27.4,6.9,27.4z"/>
</g>
</svg>
